<?xml version="1.0" encoding="UTF-8" standalone="no"?>
<!DOCTYPE svg PUBLIC "-//W3C//DTD SVG 1.1//EN" "http://www.w3.org/Graphics/SVG/1.1/DTD/svg11.dtd">
<svg version="1.1" xmlns="http://www.w3.org/2000/svg" xmlns:xlink="http://www.w3.org/1999/xlink" preserveAspectRatio="xMidYMid meet" viewBox="0 0 640 640" width="640" height="640"><defs><path d="M314.33 332.25L314.33 332.25L306.27 338.78L291.34 326.69L299.4 320.16L306.27 325.72L326.76 309.13L334.83 315.66L314.33 332.25Z" id="c4r9KcZJDC"></path><path d="M268.34 332.25L268.34 332.25L276.4 338.78L291.34 326.69L283.28 320.16L276.41 325.72L255.91 309.13L247.85 315.66L268.34 332.25Z" id="aAARN2WJS"></path><path d="M309.99 338.78L328.65 372.88L291.34 372.88L254.03 372.88L272.68 338.78L291.34 304.68L309.99 338.78Z" id="adLTeaRO3"></path><path d="M307.65 304.68C307.65 314.23 300.34 321.98 291.34 321.98C282.34 321.98 275.03 314.23 275.03 304.68C275.03 295.13 282.34 287.38 291.34 287.38C300.34 287.38 307.65 295.13 307.65 304.68Z" id="c33zyFR8V"></path><path d="" id="a1sPC7ZpVc"></path></defs><g><g><g><g><use xlink:href="#c4r9KcZJDC" opacity="1" fill="#edd9b0" fill-opacity="1"></use></g><g><use xlink:href="#aAARN2WJS" opacity="1" fill="#edd9b0" fill-opacity="1"></use></g><g><use xlink:href="#adLTeaRO3" opacity="1" fill="#695dbf" fill-opacity="1"></use></g><g><use xlink:href="#c33zyFR8V" opacity="1" fill="#edd9b0" fill-opacity="1"></use></g><g><g><use xlink:href="#a1sPC7ZpVc" opacity="1" fill-opacity="0" stroke="#000000" stroke-width="1" stroke-opacity="1"></use></g></g></g></g></g></svg>